Genre:Horror | Sci-Fi | Thriller
Language: English
IMDb:http://www.imdb.com/title/tt1017460/
Video Source:R5
Audio Source:CiNE21
Subtitles: ROMANA
..............................................
General
Complete name : Splice.2010.R5 LINE.XVID.FEEL-FREE
Format : AVI
Format/Info : Audio Video Interleave
File size : 636 MiB
Duration : 1h 44mn
Overall bit rate : 853 Kbps
Writing application : VirtualDubMod
..............................................
Video
ID : 0
Format : MPEG-4 Visual
Format profile : AdvancedSimple@L5
Format settings, BVOP : Yes
Format settings, QPel : No
Format settings, GMC : No warppoints
Format settings, Matrix : Custom
Codec ID : XVID
Codec ID/Hint : XviD
Duration : 1h 44mn
Bit rate : 655 Kbps
Width : 652 pixels
Height : 352 pixels
Display aspect ratio : 1.852
Frame rate : 23.976 fps
Resolution : 24 bits
Colorimetry : 4:2:0
Scan type : Progressive
Bits/(Pixel*Frame) : 0.119
Stream size : 488 MiB (77%)
Writing library : XviD 1.2.1 (UTC 2008-12-04)
...............................................
Audio
ID : 1
Format : MPEG Audio
Format version : Version 1
Format profile : Layer 3
Format settings, Mode : Joint stereo / MS Stereo
Codec ID : 55
Codec ID/Hint : MP3
Duration : 1h 42mn
Bit rate mode : Constant
Bit rate : 192 Kbps
Channel(s) : 2 channels
Sampling rate : 48.0 KHz
Resolution : 16 bits
Video delay : 16ms
Stream size : 141 MiB (22%)
Alignment : Split accross interleaves
Interleave, duration : 42 ms (1.02 video frame)
Interleave, preload duration : 500 ms
................................................
Plot:
Elsa and Clive, two young rebellious scientists, defy legal and ethical boundaries and forge ahead with